<?xml version="1.0" standalone="no"?>
<!DOCTYPE svg PUBLIC "-//W3C//DTD SVG 1.1//EN" "http://www.w3.org/Graphics/SVG/1.1/DTD/svg11.dtd">
<svg xmlns:inkscape="http://www.inkscape.org/namespaces/inkscape" xmlns:sodipodi="http://sodipodi.sourceforge.net/DTD/sodipodi-0.dtd" xmlns="http://www.w3.org/2000/svg" xmlns:svg="http://www.w3.org/2000/svg" version="1.1" id="svg1" width="688.6799926757812" height="688.6799926757812" viewBox="0 0 688.67999 688.67999" sodipodi:docname="Mavs Logo.svg" inkscape:version="1.3 (0e150ed6c4, 2023-07-21)">
  <defs id="defs1"/>
  <sodipodi:namedview id="namedview1" pagecolor="#ffffff" bordercolor="#000000" borderopacity="0.25" inkscape:showpageshadow="2" inkscape:pageopacity="0.0" inkscape:pagecheckerboard="0" inkscape:deskcolor="#d1d1d1" inkscape:zoom="1" inkscape:cx="304.5" inkscape:cy="478.5" inkscape:window-width="2560" inkscape:window-height="1411" inkscape:window-x="2391" inkscape:window-y="-9" inkscape:window-maximized="1" inkscape:current-layer="group-R5">
    <inkscape:page x="0" y="0" inkscape:label="1" id="page1" width="688.67999" height="688.67999" margin="0" bleed="0"/>
  </sodipodi:namedview>
  <g id="g1" inkscape:groupmode="layer" inkscape:label="1">
    <g id="group-R5">
      <path d="M 309.53906,-0.00195313 C 307.4364,0.2087129 305.33809,0.4355945 303.24609,0.68359375 L 287.91797,18.941406 284.45312,46.703125 276.70508,50.019531 268.2793,50.140625 253.82227,26.1875 233.64062,16.353516 c -2.27332,0.766664 -4.53511,1.555809 -6.7871,2.36914 l -10.04883,20.589844 3.35351,27.773437 -6.71484,5.091797 -8.14649,2.158203 -19.82031,-19.746093 -22.83008,-4.84375 c -1.79466,1.107996 -3.57628,2.23367 -5.34961,3.375 l -5.14257,22.246093 9.51562,26.308593 -5.39453,6.47266 -7.45312,3.93359 -23.75586,-14.781249 -23.50782,0.417969 c -1.28906,1.269329 -2.569091,2.54989 -3.837887,3.83789 l -0.416016,23.50781 14.779293,23.75586 -3.93359,7.45117 -6.47266,5.39844 -26.308589,-9.51758 -22.246094,5.14258 c -1.141197,1.772 -2.265537,3.55495 -3.375,5.34961 l 4.845703,22.83008 19.744141,19.82226 -2.15625,8.14649 -5.091797,6.71484 -27.775391,-3.35547 -20.589844,10.04883 c -0.813064,2.25333 -1.601943,4.51574 -2.36914,6.78906 l 9.833984,20.18165 23.955078,14.45507 -0.123047,8.42578 -3.316406,7.74805 -27.761719,3.46289 -18.25781213,15.33008 C 0.43867296,305.33613 0.2104167,307.43312 0,309.53711 l 14.042969,17.35156 26.591797,8.69727 1.777343,8.23828 -1.490234,8.29297 -26.271484,9.62109 -14.46484413,19.20899 c 0.15833286,1.49866 0.324871,2.99299 0.50195313,4.48632 l 18.255859,15.32813 27.763672,3.46484 3.314453,7.7461 0.123047,8.42578 -23.955078,14.45703 -9.833984,20.18164 c 0.767197,2.27333 1.556076,4.53707 2.36914,6.78906 l 20.589844,10.04883 27.775391,-3.35352 5.091797,6.71289 2.15625,8.14649 -19.744141,19.82226 -4.845703,22.82813 c 1.10893,1.79466 2.233803,3.57957 3.375,5.35156 l 22.246094,5.14258 26.308589,-9.51758 6.47266,5.39844 3.93359,7.45117 -14.779293,23.75391 0.416016,23.50976 c 1.268796,1.28947 2.549357,2.56856 3.837887,3.83789 l 23.50782,0.41602 23.75586,-14.78125 7.45312,3.93359 5.39648,6.47266 -9.51757,26.30859 5.14257,22.24805 c 1.772,1.1412 3.55629,2.26407 5.34961,3.375 l 22.83008,-4.8457 19.82227,-19.74414 8.14453,2.15625 6.7168,5.09179 -3.35547,27.77539 10.04883,20.58985 c 2.25199,0.81186 4.5144,1.60283 6.78906,2.37109 l 20.18164,-9.83789 14.45508,-23.95312 8.42773,0.12109 7.74609,3.31641 3.46485,27.76367 15.32812,18.25781 c 2.092,0.24635 4.18898,0.47461 6.29297,0.68555 l 17.35156,-14.04492 8.69727,-26.58985 8.23828,-1.77734 8.29297,1.48828 9.62109,26.27148 19.20704,14.4668 c 1.49866,-0.15625 2.99495,-0.32448 4.48828,-0.5 l 15.33007,-18.25781 3.46094,-27.76367 7.75,-3.31641 8.42383,-0.12109 14.45898,23.95312 20.17969,9.83594 c 2.27333,-0.76667 4.53769,-1.55728 6.79102,-2.36914 l 10.04687,-20.58985 -3.35547,-27.77734 6.71485,-5.08984 8.14844,-2.15625 19.82031,19.74414 22.82812,4.84375 c 1.796,-1.10933 3.57824,-2.23185 5.35157,-3.37305 L 536.52734,613.30859 527.00977,587 l 5.39843,-6.47266 7.45117,-3.93359 23.75586,14.78125 23.50782,-0.41602 c 1.28799,-1.26933 2.56989,-2.54842 3.83789,-3.83789 l 0.41601,-23.50976 -14.77734,-23.75391 3.93164,-7.45117 6.4707,-5.39844 26.31055,9.51758 22.24609,-5.14258 c 1.14133,-1.77199 2.26763,-3.5569 3.37696,-5.35156 l -4.84766,-22.82813 -19.74609,-19.82226 2.1582,-8.14649 5.0918,-6.71484 27.77539,3.35547 20.58984,-10.04883 c 0.81333,-2.25199 1.60176,-4.51769 2.37109,-6.79101 l -9.83593,-20.17969 -23.95508,-14.45703 0.12305,-8.42578 3.3164,-7.74805 27.76172,-3.46289 18.25586,-15.32813 c 0.248,-2.09199 0.47683,-4.18897 0.6875,-6.29297 l -14.04297,-17.35156 -26.58984,-8.69922 -1.77735,-8.23632 1.48633,-8.29493 26.27344,-9.61914 14.4668,-19.20898 c -0.15867,-1.49866 -0.32791,-2.99433 -0.50391,-4.48633 l -18.25586,-15.33008 -27.76172,-3.46289 -3.3164,-7.74805 -0.12305,-8.42578 23.95508,-14.45507 9.83593,-20.18165 c -0.76933,-2.27332 -1.55776,-4.53706 -2.37109,-6.78906 l -20.58984,-10.05078 -27.77539,3.35742 -5.0918,-6.71679 -2.1582,-8.14454 19.74609,-19.82421 4.84766,-22.82813 c -1.10933,-1.79466 -2.23696,-3.57761 -3.37696,-5.34961 l -22.24609,-5.14258 -26.31055,9.51758 -6.4707,-5.39844 -3.93359,-7.45312 14.77929,-23.75391 -0.41797,-23.50781 c -1.26799,-1.28933 -2.5466,-2.568561 -3.83593,-3.83789 l -23.50782,-0.417969 -23.75586,14.781249 -7.45312,-3.93359 -5.39648,-6.47266 9.51757,-26.308593 -5.14257,-22.248046 c -1.77467,-1.139997 -3.55691,-2.263717 -5.35157,-3.373047 l -22.82812,4.84375 -19.82031,19.746093 -8.14844,-2.158203 -6.71485,-5.091797 3.35547,-27.773437 -10.04687,-20.589844 c -2.25333,-0.813331 -4.51769,-1.603096 -6.79102,-2.371094 l -20.17969,9.835938 -14.45898,23.953125 -8.42383,-0.121094 -7.75,-3.316406 -3.46094,-27.761719 -15.33007,-18.25781225 c -1.49333,-0.17599947 -2.98962,-0.34266714 -4.48828,-0.5 l -19.20704,14.46484425 -9.62109,26.271484 -8.29297,1.488281 -8.23828,-1.775391 -8.69922,-26.593749 z M 337.94727,217.80859 c -3.63161,1.27029 -7.21299,2.61213 -10.74415,4.02149 -3.53115,1.40936 -7.01146,2.88657 -10.4414,4.43359 -3.42994,1.54702 -6.80876,3.16244 -10.13672,4.8457 -3.32796,1.68327 -6.60486,3.43582 -9.83008,5.25391 -3.22522,1.81809 -6.39977,3.7028 -9.52148,5.6543 -3.12171,1.9515 -6.19155,3.96924 -9.20899,6.05273 -3.01743,2.0835 -5.98213,4.23319 -8.89453,6.44727 -2.9124,2.21407 -5.77153,4.4927 -8.57812,6.83594 -2.8066,2.34323 -5.55974,4.74972 -8.25977,7.2207 -2.70003,2.47098 -5.34676,5.0062 -7.93945,7.60351 -2.5927,2.59732 -5.13259,5.25825 -7.61719,7.98047 -2.4846,2.72223 -4.91528,5.50584 -7.29102,8.35157 -4.75146,5.69144 -9.28427,11.62774 -13.5957,17.80468 -4.31143,6.17695 -8.40035,12.59498 -12.26562,19.2461 -3.86528,6.65111 -7.50693,13.53644 -10.91993,20.65039 -3.41299,7.11395 -6.59813,14.45602 -9.55273,22.02148 -2.9546,7.56546 -5.67788,15.35374 -8.16797,23.35938 -2.49009,8.00564 -4.74616,16.22957 -6.76562,24.66406 -2.01946,8.43449 -3.803,17.07962 -5.34571,25.93164 -1.54271,8.85202 -2.84641,17.91171 -3.90625,27.16992 -1.05984,9.25821 -1.87641,18.71606 -2.44726,28.36914 -0.5701,9.64031 -0.89244,19.47521 -0.96875,29.49805 -1e-4,0.0133 -0.002,0.0258 -0.002,0.0391 -0.71334,-0.72043 -1.37301,-1.49218 -2.07812,-2.2207 -1.94405,-2.00856 -3.90667,-3.99942 -5.78711,-6.06836 -0.43573,-0.47942 -0.84117,-0.98615 -1.27344,-1.46875 -0.34861,-0.38921 -0.72397,-0.75326 -1.07031,-1.14453 -0.78152,-0.8829 -1.49964,-1.82153 -2.26953,-2.71485 -1.24182,-1.44087 -2.52517,-2.84491 -3.73633,-4.3125 -0.67997,-0.82393 -1.31028,-1.68925 -1.98047,-2.52148 -0.52255,-0.6489 -1.08695,-1.26212 -1.60351,-1.91602 -0.62025,-0.78514 -1.18339,-1.61592 -1.79493,-2.4082 -0.82688,-1.07127 -1.69701,-2.10724 -2.50781,-3.19141 -0.92266,-1.23374 -1.7781,-2.51934 -2.67969,-3.76953 -0.63981,-0.8872 -1.33185,-1.73353 -1.96093,-2.6289 -0.41256,-0.58719 -0.78155,-1.20621 -1.18946,-1.79688 -0.51629,-0.7476 -1.06932,-1.46757 -1.57812,-2.2207 -1.21667,-1.80091 -2.34819,-3.66216 -3.52148,-5.49414 -0.64582,-1.00837 -1.34798,-1.97653 -1.98047,-2.99414 -0.21213,-0.34128 -0.39681,-0.70066 -0.60743,-1.04297 -0.25925,-0.42136 -0.54381,-0.82513 -0.80078,-1.24805 -1.79146,-2.94837 -3.4856,-5.96024 -5.16406,-8.98242 -0.32098,-0.57796 -0.68126,-1.13034 -0.99805,-1.71094 -0.0377,-0.0691 -0.0697,-0.14175 -0.10742,-0.21093 -0.0406,-0.0747 -0.0864,-0.14602 -0.12695,-0.22071 -2.04495,-3.76443 -4.0017,-7.58352 -5.86719,-11.45508 -0.13433,-0.27879 -0.24942,-0.56832 -0.38281,-0.84765 -0.11388,-0.23848 -0.24619,-0.46621 -0.35938,-0.70508 -0.48857,-1.03107 -0.90326,-2.10231 -1.3789,-3.14063 -1.07766,-2.35249 -2.18885,-4.68735 -3.199221,-7.07617 -0.281795,-0.66624 -0.520374,-1.35443 -0.796875,-2.02343 -0.226473,-0.54797 -0.491939,-1.0752 -0.714844,-1.625 -0.439717,-1.08459 -0.802765,-2.20718 -1.228516,-3.29883 -0.666495,-1.7089 -1.385655,-3.39131 -2.017578,-5.11719 -0.401955,-1.0978 -0.739127,-2.22555 -1.126953,-3.33008 -0.297443,-0.84713 -0.648424,-1.6685 -0.9375,-2.51953 0.01391,-0.0421 0.031,-0.0809 0.04492,-0.12305 2.660698,-8.05252 5.480857,-15.91391 8.464845,-23.56836 2.99959,-7.69448 6.16268,-15.18453 9.48437,-22.46484 3.3217,-7.28031 6.80221,-14.35087 10.44141,-21.20508 3.6392,-6.8542 7.43656,-13.49204 11.38867,-19.9082 3.95212,-6.41616 8.05988,-12.61 12.32031,-18.57617 4.26044,-5.96618 8.67412,-11.70474 13.23829,-17.20899 4.56416,-5.50425 9.27927,-10.7743 14.14257,-15.80468 4.86331,-5.03039 9.87536,-9.82066 15.03321,-14.36524 5.15785,-4.54458 10.4604,-8.84379 15.9082,-12.89062 5.4478,-4.04684 11.04028,-7.84175 16.77344,-11.37891 5.73316,-3.53716 11.60716,-6.8165 17.62109,-9.83203 6.01393,-3.01553 12.16888,-5.76803 18.45899,-8.25 6.2901,-2.48197 12.71565,-4.69439 19.27734,-6.63086 6.56169,-1.93647 13.25921,-3.59558 20.08789,-4.97461 6.82868,-1.37903 13.78978,-2.47746 20.88086,-3.28711 7.09107,-0.80965 14.31128,-1.33221 21.66016,-1.56055 z m 168,32.54297 c -0.80417,2.60199 -1.48461,5.16526 -2.03907,7.69336 -0.55445,2.52811 -0.98431,5.0204 -1.28906,7.47461 -0.30475,2.45421 -0.48402,4.87166 -0.53906,7.25195 -0.055,2.3803 0.0143,4.72294 0.20898,7.0293 0.19467,2.30636 0.51461,4.57618 0.95899,6.80859 0.44437,2.23242 1.01295,4.42748 1.70703,6.58594 0.69408,2.15846 1.51324,4.28076 2.45703,6.36524 0.94379,2.08448 2.01354,4.13209 3.20703,6.14257 l -28.06055,46.77344 c -1.69857,-3.6404 -3.2602,-7.18541 -4.68554,-10.63672 -1.42535,-3.4513 -2.71507,-6.8081 -3.86719,-10.07031 -1.15212,-3.26221 -2.16603,-6.43079 -3.04492,-9.50391 -0.87889,-3.07311 -1.62285,-6.05152 -2.22852,-8.93554 -0.60566,-2.88402 -1.07381,-5.67226 -1.40625,-8.36719 -0.33243,-2.69493 -0.52868,-5.2969 -0.58789,-7.80273 -0.0592,-2.50583 0.0184,-4.91569 0.23242,-7.23243 0.21402,-2.31673 0.56549,-4.54033 1.05274,-6.66796 0.48725,-2.12764 1.11062,-4.15912 1.87109,-6.09766 0.76048,-1.93854 1.6577,-3.78377 2.69141,-5.5332 1.0337,-1.74944 2.20283,-3.40451 3.50976,-4.96485 1.30693,-1.56034 2.75188,-3.02524 4.33203,-4.39648 1.58016,-1.37124 3.29701,-2.64794 5.15039,-3.83008 1.85339,-1.18214 3.84214,-2.27064 5.96875,-3.26367 2.12662,-0.99304 4.39118,-1.89138 6.79102,-2.69531 2.39984,-0.80394 4.93631,-1.51213 7.60938,-2.12696 z m 91.5996,13.42969 c 0.16588,0.52183 0.36266,1.02951 0.5254,1.55273 1.29373,4.15956 2.48805,8.363 3.58007,12.60743 1.09203,4.24443 2.08205,8.52978 2.9668,12.85351 0.88475,4.32374 1.66403,8.68651 2.33594,13.08399 0.6719,4.39747 1.23595,8.82926 1.68945,13.29492 0.4535,4.46565 0.79586,8.96392 1.02539,13.49219 0.22953,4.52827 0.3457,9.08655 0.3457,13.67187 0,4.58532 -0.11617,9.14361 -0.3457,13.67188 -0.22953,4.52826 -0.57189,9.02653 -1.02539,13.49218 -0.4535,4.46566 -1.01755,8.8994 -1.68945,13.29688 -0.67191,4.39747 -1.45119,8.76025 -2.33594,13.08398 -0.88475,4.32374 -1.87477,8.60909 -2.9668,12.85352 -1.09202,4.24443 -2.28634,8.44786 -3.58007,12.60742 -1.29374,4.15956 -2.68785,8.27463 -4.17774,12.34375 -1.48988,4.06912 -3.07539,8.09133 -4.75586,12.06445 -1.68047,3.97313 -3.45482,7.89797 -5.32031,11.76953 -1.86549,3.87157 -3.82224,7.69064 -5.86719,11.45508 -2.04494,3.76444 -4.1796,7.47325 -6.39844,11.125 -2.21884,3.65175 -4.52298,7.2458 -6.91015,10.7793 -2.38717,3.53349 -4.85632,7.00634 -7.40625,10.41601 -2.54994,3.40968 -5.17959,6.75682 -7.88672,10.03711 -2.70714,3.2803 -5.49279,6.49528 -8.35156,9.64063 -2.85877,3.14535 -5.79203,6.22172 -8.79688,9.22656 -3.00484,3.00484 -6.08121,5.93811 -9.22656,8.79688 -3.14535,2.85876 -6.35837,5.64248 -9.63867,8.34961 -3.2803,2.70713 -6.62743,5.33679 -10.03711,7.88671 -3.40968,2.54993 -6.88252,5.02104 -10.41602,7.40821 -3.5335,2.38716 -7.12754,4.69132 -10.77929,6.91015 -3.65176,2.21884 -7.36056,4.35155 -11.125,6.39649 -3.76445,2.04494 -7.58547,4.0017 -11.45704,5.86719 -3.87156,1.86548 -7.79445,3.63984 -11.76757,5.32031 -3.97313,1.68046 -7.99533,3.26598 -12.06446,4.75586 -4.06912,1.48988 -8.18614,2.884 -12.3457,4.17773 -4.15956,1.29374 -8.36299,2.48806 -12.60742,3.58008 -4.24443,1.09202 -8.52978,2.08205 -12.85352,2.9668 -4.32373,0.88474 -8.68455,1.66403 -13.08203,2.33593 -4.39748,0.67191 -8.83122,1.23596 -13.29687,1.68946 -4.46566,0.4535 -8.96392,0.79586 -13.49219,1.02539 -4.52827,0.22953 -9.08656,0.3457 -13.67188,0.3457 -4.58527,0 -9.14364,-0.11617 -13.67187,-0.3457 -4.52823,-0.22953 -9.02657,-0.57189 -13.49219,-1.02539 -4.46562,-0.4535 -8.89747,-1.01755 -13.29492,-1.68946 -4.39745,-0.6719 -8.76028,-1.45119 -13.08399,-2.33593 -4.3237,-0.88475 -8.6091,-1.87478 -12.85351,-2.9668 -4.24441,-1.09202 -8.44788,-2.28634 -12.60742,-3.58008 -4.15954,-1.29373 -8.27464,-2.68785 -12.34375,-4.17773 -3.26018,-1.1937 -6.4671,-2.49416 -9.66602,-3.81055 -0.51788,-3.86992 -1.1519,-7.7326 -1.59961,-11.60351 -1.09097,-9.43256 -1.97187,-18.8626 -2.64258,-28.25196 -0.6707,-9.38936 -1.13158,-18.73909 -1.37695,-28.01562 -0.24537,-9.27653 -0.27683,-18.48016 -0.0918,-27.57422 0.18504,-9.09406 0.58652,-18.07796 1.20704,-26.91992 0.62051,-8.84197 1.46041,-17.54227 2.52148,-26.0625 1.06107,-8.52024 2.34487,-16.86136 3.85156,-24.99024 1.50669,-8.12887 3.23598,-16.04501 5.19336,-23.71289 1.95739,-7.66788 4.14154,-15.08735 6.55469,-22.22461 1.20658,-3.56862 2.4715,-7.06732 3.79297,-10.49023 1.32147,-3.42292 2.69972,-6.77057 4.13672,-10.03906 1.43699,-3.2685 2.93317,-6.45713 4.48632,-9.5625 1.55316,-3.10538 3.16404,-6.127 4.83399,-9.06055 1.66995,-2.93355 3.39816,-5.78018 5.18555,-8.5332 1.78738,-2.75303 3.63361,-5.41278 5.53906,-7.97657 1.90544,-2.56379 3.87039,-5.03063 5.89453,-7.39648 2.02414,-2.36585 4.10848,-4.63181 6.25195,-6.79102 2.14348,-2.15921 4.34594,-4.21238 6.60938,-6.15625 2.26344,-1.94386 4.58666,-3.77823 6.9707,-5.49804 2.38404,-1.71982 4.82871,-3.32544 7.33399,-4.8125 2.50527,-1.48707 5.07207,-2.85596 7.69921,-4.10157 2.62714,-1.2456 5.31482,-2.36783 8.06446,-3.36328 2.74964,-0.99544 5.56081,-1.86303 8.43359,-2.59961 -2.52882,6.10831 -4.71647,12.062 -6.5625,17.86133 -1.84603,5.79934 -3.35043,11.44325 -4.51367,16.93359 -1.16324,5.49035 -1.98439,10.82648 -2.46484,16.00782 -0.24023,2.59067 -0.39532,5.14283 -0.46485,7.65625 -0.0695,2.51341 -0.0543,4.98962 0.0469,7.42578 0.10116,2.43615 0.28868,4.83251 0.56054,7.1914 0.27187,2.3589 0.62776,4.67931 1.07032,6.96094 0.44256,2.28163 0.97072,4.52416 1.58398,6.72852 0.61326,2.20436 1.31175,4.37095 2.0957,6.49804 0.78396,2.1271 1.65277,4.21581 2.60743,6.26563 0.95465,2.04982 1.99574,4.06066 3.12109,6.0332 1.12535,1.97255 2.33677,3.90747 3.63281,5.80274 1.29605,1.89527 2.67584,3.75037 4.14258,5.56836 l -33.50781,50.79492 c -0.52867,2.70915 -0.84993,5.34476 -0.96485,7.90625 -0.11491,2.56149 -0.0234,5.04905 0.27539,7.46289 0.29885,2.41384 0.80498,4.75333 1.51758,7.01953 0.71261,2.2662 1.63145,4.45955 2.75781,6.57813 1.12637,2.11857 2.45986,4.16381 4,6.13476 1.54015,1.97095 3.28828,3.86806 5.24219,5.69141 1.95392,1.82334 4.11473,3.5723 6.48242,5.24804 2.3677,1.67575 4.94117,3.27849 7.72266,4.80664 l 51.63086,-71.78125 c 0.94108,0.0867 1.78362,0.27874 2.5293,0.57618 0.74567,0.29743 1.39308,0.70078 1.94336,1.20898 0.55027,0.5082 1.00255,1.12283 1.35742,1.8418 0.35487,0.71897 0.61201,1.54292 0.77148,2.47265 0.15948,0.92974 0.22147,1.96497 0.18555,3.10547 -0.0359,1.1405 -0.16907,2.38507 -0.40039,3.73633 -0.46264,2.70252 -1.31635,5.82748 -2.56055,9.37305 -1.2442,3.54556 -2.87854,7.51179 -4.9043,11.90039 -2.02575,4.3886 -4.44271,9.20002 -7.25,14.43164 -2.80728,5.23162 -6.00494,10.88435 -9.59375,16.95898 -3.5888,6.07463 -7.56914,12.57065 -11.93945,19.48828 0.8985,2.68766 1.884,5.30987 2.95703,7.86719 1.07303,2.55732 2.23487,5.04958 3.48242,7.47656 1.24756,2.42699 2.58184,4.78929 4.00391,7.08594 1.42207,2.29665 2.93077,4.529 4.52734,6.69531 1.59658,2.16632 3.28167,4.26676 5.05274,6.30274 1.77107,2.03598 3.62867,4.00647 5.57422,5.91211 1.94555,1.90564 3.97763,3.74618 6.09765,5.52148 2.12003,1.7753 4.32856,3.4859 6.62305,5.13086 l 64.94141,-21.76758 6.83789,-43.53711 c 1.46166,-4.48997 3.00783,-8.79122 4.625,-12.91992 1.61716,-4.12869 3.30581,-8.08612 5.04883,-11.88867 1.74301,-3.80255 3.54165,-7.4494 5.38086,-10.96094 1.8392,-3.51154 3.71925,-6.8869 5.625,-10.14257 3.81149,-6.51135 7.72528,-12.54741 11.625,-18.2461 3.89971,-5.69869 7.78446,-11.06137 11.53515,-16.22851 3.75069,-5.16714 7.368,-10.138 10.73242,-15.05469 3.36443,-4.9167 6.47589,-9.77921 9.2168,-14.72656 1.37046,-2.47368 2.64826,-4.96791 3.81836,-7.50196 1.1701,-2.53404 2.23375,-5.10677 3.17383,-7.73633 0.94008,-2.62955 1.75709,-5.31597 2.4375,-8.07617 0.68041,-2.7602 1.22415,-5.5955 1.61523,-8.52148 l 40.54297,-29.61524 z M 445.28711,494.67187 c -0.11383,2.75216 -0.40634,5.34134 -0.875,7.76758 -0.46866,2.42624 -1.11403,4.69069 -1.9375,6.79102 -0.82348,2.10033 -1.82367,4.03611 -3.00195,5.81055 -1.17828,1.77443 -2.53529,3.3874 -4.06836,4.83593 -1.53308,1.44854 -3.243,2.73283 -5.13086,3.85547 -1.88786,1.12264 -3.95268,2.08215 -6.19532,2.87891 -2.24263,0.79675 -4.66236,1.43147 -7.25976,1.90234 -2.5974,0.47088 -5.37207,0.77883 -8.32422,0.92383 l -9.3457,-28.06055 c 1.93715,1.45533 3.87116,2.69517 5.80468,3.7168 1.93353,1.02163 3.86701,1.82613 5.79688,2.41406 1.92987,0.58794 3.85701,0.95903 5.7832,1.11328 1.92619,0.15426 3.85095,0.0919 5.77344,-0.1875 1.92249,-0.27941 3.84295,-0.77716 5.76172,-1.49023 1.91877,-0.71308 3.83497,-1.64234 5.75,-2.78906 1.91503,-1.14673 3.82896,-2.50949 5.74023,-4.08985 1.91128,-1.58036 3.82103,-3.37859 5.72852,-5.39258 z" style="fill:#c8102e;fill-opacity:1" id="path9"/>
    </g>
  </g>
</svg>